<?xml version="1.0" encoding="UTF-8" standalone="no"?><!-- Generator: Gravit.io --><svg xmlns="http://www.w3.org/2000/svg" xmlns:xlink="http://www.w3.org/1999/xlink" style="isolation:isolate" viewBox="0 0 1439 360" width="1439pt" height="360pt"><g style="mix-blend-mode:normal;" opacity="0.071"><path d="M -61.099 641.318 L -61.099 641.319 C -0.524 701.894 97.833 701.894 158.407 641.319 L 439.529 360.191 C 500.104 299.616 500.104 201.257 439.529 140.682 L 439.529 140.681 C 378.954 80.106 280.597 80.106 220.023 140.681 L -61.099 421.809 C -121.674 482.384 -121.674 580.743 -61.099 641.318 Z" style="stroke:none;fill:#F0ECFF;stroke-miterlimit:10;"/></g><g style="mix-blend-mode:normal;" opacity="0.071"><path d="M 1002.901 238.318 L 1002.901 238.319 C 1063.476 298.894 1161.833 298.894 1222.407 238.319 L 1503.529 -42.809 C 1564.104 -103.384 1564.104 -201.743 1503.529 -262.318 L 1503.529 -262.319 C 1442.954 -322.894 1344.597 -322.894 1284.023 -262.319 L 1002.901 18.809 C 942.326 79.384 942.326 177.743 1002.901 238.318 Z" style="stroke:none;fill:#F0ECFF;stroke-miterlimit:10;"/></g></svg>